<?xml version="1.0" encoding="utf-8"?>
<!-- Generator: Adobe Illustrator 17.0.0, SVG Export Plug-In . SVG Version: 6.00 Build 0)  -->
<!DOCTYPE svg PUBLIC "-//W3C//DTD SVG 1.1//EN" "http://www.w3.org/Graphics/SVG/1.1/DTD/svg11.dtd">
<svg version="1.1" id="Layer_1" xmlns="http://www.w3.org/2000/svg" xmlns:xlink="http://www.w3.org/1999/xlink" x="0px" y="0px"
	 width="286px" height="293.333px" viewBox="0 0 286 293.333" enable-background="new 0 0 286 293.333" xml:space="preserve">
<g>
	
		<image overflow="visible" opacity="0.2" enable-background="new    " width="1254" height="1108" xlink:href="BEDB2AC1CC8FFB7A.png"  transform="matrix(0.239 0 0 0.2387 -0.9766 -3.7242)">
	</image>
	<g>
		<path fill="#323332" d="M189.508,29.047c2.084-0.241,4.489,0.401,6.868,1.363c-0.722,0.588-1.71,1.309-2.405,1.55
			c-0.08,0.053-0.16,0.08-0.214,0.08c-0.347,0.16-0.748,0.24-1.149,0.24c-1.71,0-3.1-1.363-3.1-3.073L189.508,29.047L189.508,29.047
			z M79.441,32.28c0,0,0,0,0.027,0c0-2.245,1.577-4.062,3.527-4.062c1.951,0,3.527,1.817,3.527,4.062
			c0,2.058-1.283,3.741-2.966,4.035c-2.138,0.748-4.115,0.053-4.115,0.053C79.041,34.605,79.441,32.28,79.441,32.28z M36.9,172.596
			c4.008-0.214,2.458,5.131,1.122,6.921c-0.321,0.427-2.111,0.989-4.543,1.176C31.209,175.081,33.507,172.809,36.9,172.596z
			 M274.51,178.39h-2.247c-11.672-2.776-15.846,5.909-17.097,9.782v0.027c0,0-0.027,0.027-0.055,0.11
			c-0.292,0.585-1.525,3.069-2.777,4.621l-0.027,0.027c-5.991,5.105-16.54,1.251-16.54,1.251c-2.539-0.74-5.051-4.192-7.06-7.882
			V186.3c-0.027-0.046-0.055-0.1-0.082-0.155c-0.046-0.082-0.073-0.137-0.101-0.219c-0.137-0.183-0.247-0.393-0.347-0.585v-0.027
			c-0.027-0.027-0.055-0.055-0.055-0.11c-0.429-0.694-0.804-1.489-1.178-2.402c-2.247-5.8-2.996-15.042-3.124-17.07
			c-0.027-0.274-0.027-0.402-0.027-0.402c-1.872-36.77-9.407-39.126-14.321-45.054c-5.352-6.466-20.257-6.229-27.153-9.727
			c-6.923-3.498-1.333-2.968-1.333-2.968s1.763,0.457,4.886,1.553c3.124,1.123,17.371,3.79,26.961-3.553
			c4.411-3.398,6.119-9.572,6.685-15.344c6.567-1.525,14.266,1.014,18.248,3.982c6.01,4.466,6.439,17.161-3.79,20.285
			c-10.238,3.096-13.362-6.037-10.905-9.142c2.429-3.124,16.695,1.763,8.229-2.667c-8.476-4.439-15.846,0.155-15.335,8.686
			c0.475,8.521,11.563,10.896,13.544,11.243c2.028,0.32,22.285-1.014,22.714-21.719c0.457-20.714-17.371-27.18-17.371-27.18
			c-6.01-1.626-11.599-1.973-16.705-1.416c-2.137-6.037-7.663-16.65-20.011-21.938c-17.152-7.38-13.818-15.819-13.818-15.819
			c0.137-0.639,0.301-1.206,0.484-1.708c0.292,4.055,3.662,7.261,7.8,7.261c4.256,0,7.727-3.416,7.809-7.69
			c3.498,2.028,6.174,4.137,6.174,4.137c12.019,4.009,5.8-0.877,5.8-0.877c-9.142-11.599-18.714-13.599-18.714-13.599
			c-21.618-3.562-18.705,16.915-18.705,16.915C178.74,51.924,191.672,58.6,191.672,58.6c8.658,4.758,10.686,12.43,10.686,18.549
			c-15.974,5.471-31.126,19.052-31.126,19.052v0.027c-3.261-1.525-5.854-3.452-7.188-5.133c-1.288-1.662-1.927-3.124-2.137-4.439
			c6.594-8.74,10.604-20.358,10.604-33.163c0-27.171-18.139-49.219-40.506-49.219c-22.394,0-40.542,22.048-40.542,49.219
			c0,0.511,0,1.041,0.027,1.553h-0.027c-21.372-0.667-35.19,19.134-29.391,36.076c5.772,16.915,21.381,13.572,21.381,13.572
			l6.676,0.457c0,0,9.782,3.763-18.275,0.21c-18.522-2.347-21.116-17.289-20.066-28.906c0.018-0.402,0.1-0.859,0.155-1.37
			c0.804-5.124,3.471-14.476,12.503-20.951c0.055-0.046,0.082-0.073,0.137-0.101c4.676-2.831,10.978-5.909,19.079-9.462
			c1.681-0.722,3.096-1.498,4.274-2.302c0.027,0,0.055-0.018,0.055-0.018c3.873-1.744,6.576-5.644,6.576-10.156
			c0-6.147-4.968-11.115-11.115-11.115S72.31,25.948,72.31,32.095c0,1.598,0.347,3.124,0.959,4.484c0,0.027,0,0.055,0.027,0.082
			c-14.029,3.553-33.455,22.477-35.912,36.076c-2.439,13.572,1.306,44.862,27.783,47.538c26.514,2.667,18.065,2.457,14.485,3.124
			c-3.553,0.667-36.505-3.343-44.972-2.457c-8.466,0.904-27.18,14.266-27.847,41.209c-0.667,26.934,26.724,35.19,35.199,23.381
			c8.439-11.818,1.114-18.495-9.142-17.371c-6.521,0.722-6.521,7.37-5.69,12.129c-6.658-1.443-13.179-6.786-9.005-21.938
			c7.023-25.518,40.213-17.125,43.209-16.303c0.347,0.027,0.722,0.027,1.096,0.055c26.294,1.123,32.761-14.266,34.523-14.485
			c1.79-0.21,8.019-10.467,5.553-3.553c-2.429,6.896-13.353,12.695-34.943,27.82c-21.6,15.152-14.704,41.209-14.704,41.209
			c14.029,34.733,44.762,27.171,48.314,26.504c3.58-0.667,8.923-2.247,11.599,5.772c2.676,8.019-6.466,8.686-7.59,9.352
			c-1.096,0.667-15.125,4.247-1.096,4.009c14.029-0.219,14.914-7.106,14.914-7.106c4.22-17.161-10.028-19.033-10.028-19.033
			c-30.267,0.347-32.277-10.147-32.277-10.147c-13.143-26.943,12.238-38.533,12.238-38.533
			c17.828-4.009,34.523-27.153,34.523-27.153c5.133-6.466,10.019-2,10.019-2c2.219,6.01,13.124,13.362,30.496,25.81
			c17.371,12.476,2.028,32.067,2.028,32.067c-14.485,14.029-35.19-6.685-41.419-14.029c-6.247-7.352-9.809-2.676-12.722,3.343
			c-2.886,6.01-4,3.124-4,3.124s-3.315-7.8-8.658-3.553c-5.352,4.22-3.37,3.553,0,3.334c3.306-0.237,4.43,3.105,4.43,3.105
			c2.009,6.923,5.8,8.923,10.695,1.123c4.914-7.809,7.59-4.009,10.019,1.123c2.457,5.096,14.695,17.581,14.695,17.581
			c43.209,19.582,53.228-27.18,53.228-27.18c6.685-37.62-29.847-47.858-36.076-59.877c-6.22-12.028,0-5.133,0-5.133
			c5.8,12.238,28.514,21.591,28.514,21.591c16.248,4.457,22.477,27.628,22.477,27.628c4.009,25.39,21.162,35.619,21.162,35.619
			c9.188,5.69,16.138,5.854,21.271,3.717h0.11c2.986-1.178,9.855-4.731,10.284-10.156c0.237-3.288,1.26-5.882,2.165-7.59
			c0.402-1.845,1.982-3.763,8.476-4.886C280.949,179.733,274.51,178.39,274.51,178.39z M102.259,90.456
			c-8.01,7.663-20.358,6.676-24.367-6.366c-4.009-13.033,13.572-22.038,13.572-22.038l0.594-0.247c0.1,0.749,0.21,1.498,0.374,2.219
			c0.073,0.557,0.183,1.123,0.32,1.681c0.1,0.594,0.237,1.178,0.402,1.763c0.128,0.621,0.292,1.206,0.448,1.79
			c0.192,0.703,0.402,1.397,0.621,2.064c1.544,4.859,3.735,9.352,6.411,13.334c0.347,0.502,0.694,0.986,1.041,1.47
			c0.694,0.959,1.416,1.891,2.192,2.777C103.382,89.388,102.852,89.89,102.259,90.456z"/>
	</g>
</g>
<g>
	
		<image overflow="visible" opacity="0.2" enable-background="new    " width="1254" height="1108" xlink:href="BEDB2AC1CC8FFB7B.png"  transform="matrix(0.239 0 0 0.2387 -454.9766 -55.7242)">
	</image>
	<g>
		<linearGradient id="SVGID_1_" gradientUnits="userSpaceOnUse" x1="-312.3345" y1="-155.8335" x2="-312.3345" y2="223.3261">
			<stop  offset="0" style="stop-color:#77BC9A"/>
			<stop  offset="1" style="stop-color:#3C8684"/>
		</linearGradient>
		<path fill="url(#SVGID_1_)" d="M-264.492-22.953c2.084-0.241,4.489,0.401,6.868,1.363c-0.722,0.588-1.71,1.309-2.405,1.55
			c-0.08,0.053-0.16,0.08-0.214,0.08c-0.347,0.16-0.748,0.24-1.149,0.24c-1.71,0-3.1-1.363-3.1-3.073V-22.953L-264.492-22.953z
			 M-374.559-19.72c0,0,0,0,0.027,0c0-2.245,1.577-4.062,3.527-4.062c1.951,0,3.527,1.817,3.527,4.062
			c0,2.058-1.283,3.741-2.966,4.035c-2.138,0.748-4.115,0.053-4.115,0.053C-374.959-17.395-374.559-19.72-374.559-19.72z
			 M-417.1,120.596c4.008-0.214,2.458,5.131,1.122,6.921c-0.321,0.427-2.111,0.989-4.543,1.176
			C-422.791,123.081-420.493,120.809-417.1,120.596z M-179.49,126.39h-2.247c-11.672-2.776-15.846,5.909-17.097,9.782v0.027
			c0,0-0.027,0.027-0.055,0.11c-0.292,0.585-1.525,3.069-2.777,4.621l-0.027,0.027c-5.991,5.105-16.54,1.251-16.54,1.251
			c-2.539-0.74-5.051-4.192-7.06-7.882V134.3c-0.027-0.046-0.055-0.1-0.082-0.155c-0.046-0.082-0.073-0.137-0.101-0.219
			c-0.137-0.183-0.247-0.393-0.347-0.585v-0.027c-0.027-0.027-0.055-0.055-0.055-0.11c-0.429-0.694-0.804-1.489-1.178-2.402
			c-2.247-5.8-2.996-15.042-3.124-17.07c-0.027-0.274-0.027-0.402-0.027-0.402c-1.872-36.77-9.407-39.126-14.321-45.054
			c-5.352-6.466-20.257-6.229-27.153-9.727c-6.923-3.498-1.333-2.968-1.333-2.968s1.763,0.457,4.886,1.553
			c3.124,1.123,17.371,3.79,26.961-3.553c4.411-3.398,6.119-9.572,6.685-15.344c6.567-1.525,14.266,1.014,18.248,3.982
			c6.01,4.466,6.439,17.161-3.79,20.285c-10.238,3.096-13.362-6.037-10.905-9.142c2.429-3.124,16.695,1.763,8.229-2.667
			c-8.476-4.439-15.846,0.155-15.335,8.686c0.475,8.521,11.563,10.896,13.544,11.243c2.028,0.32,22.285-1.014,22.714-21.719
			c0.457-20.714-17.371-27.18-17.371-27.18c-6.01-1.626-11.599-1.973-16.705-1.416c-2.137-6.037-7.663-16.65-20.011-21.938
			c-17.152-7.38-13.818-15.819-13.818-15.819c0.137-0.639,0.301-1.206,0.484-1.708c0.292,4.055,3.662,7.261,7.8,7.261
			c4.256,0,7.727-3.416,7.809-7.69c3.498,2.028,6.174,4.137,6.174,4.137c12.019,4.009,5.8-0.877,5.8-0.877
			c-9.142-11.599-18.714-13.599-18.714-13.599c-21.618-3.562-18.705,16.915-18.705,16.915C-275.26-0.076-262.328,6.6-262.328,6.6
			c8.658,4.758,10.686,12.43,10.686,18.549c-15.974,5.471-31.126,19.052-31.126,19.052v0.027c-3.261-1.525-5.854-3.452-7.188-5.133
			c-1.288-1.662-1.927-3.124-2.137-4.439c6.594-8.74,10.604-20.358,10.604-33.163c0-27.171-18.139-49.219-40.506-49.219
			c-22.394,0-40.542,22.048-40.542,49.219c0,0.511,0,1.041,0.027,1.553h-0.027c-21.372-0.667-35.19,19.134-29.391,36.076
			c5.772,16.915,21.381,13.572,21.381,13.572l6.676,0.457c0,0,9.782,3.763-18.275,0.21c-18.522-2.347-21.116-17.289-20.066-28.906
			c0.018-0.402,0.1-0.859,0.155-1.37c0.804-5.124,3.471-14.476,12.503-20.951c0.055-0.046,0.082-0.073,0.137-0.101
			c4.676-2.831,10.978-5.909,19.079-9.462c1.681-0.722,3.096-1.498,4.274-2.302c0.027,0,0.055-0.018,0.055-0.018
			c3.873-1.744,6.576-5.644,6.576-10.156c0-6.147-4.968-11.115-11.115-11.115s-11.142,4.968-11.142,11.115
			c0,1.598,0.347,3.124,0.959,4.484c0,0.027,0,0.055,0.027,0.082c-14.029,3.553-33.455,22.477-35.912,36.076
			c-2.439,13.572,1.306,44.862,27.783,47.538c26.514,2.667,18.065,2.457,14.485,3.124c-3.553,0.667-36.505-3.343-44.972-2.457
			c-8.466,0.904-27.18,14.266-27.847,41.209c-0.667,26.934,26.724,35.19,35.199,23.381c8.439-11.818,1.114-18.495-9.142-17.371
			c-6.521,0.722-6.521,7.37-5.69,12.129c-6.658-1.443-13.179-6.786-9.005-21.938c7.023-25.518,40.213-17.125,43.209-16.303
			c0.347,0.027,0.722,0.027,1.096,0.055c26.294,1.123,32.761-14.266,34.523-14.485c1.79-0.21,8.019-10.467,5.553-3.553
			c-2.429,6.896-13.353,12.695-34.943,27.82c-21.6,15.152-14.704,41.209-14.704,41.209c14.029,34.733,44.762,27.171,48.314,26.504
			c3.58-0.667,8.923-2.247,11.599,5.772s-6.466,8.686-7.59,9.352c-1.096,0.667-15.125,4.247-1.096,4.009
			c14.029-0.219,14.914-7.106,14.914-7.106c4.22-17.161-10.028-19.033-10.028-19.033c-30.267,0.347-32.277-10.147-32.277-10.147
			c-13.143-26.943,12.238-38.533,12.238-38.533c17.828-4.009,34.523-27.153,34.523-27.153c5.133-6.466,10.019-2,10.019-2
			c2.219,6.01,13.124,13.362,30.496,25.81c17.371,12.476,2.028,32.067,2.028,32.067c-14.485,14.029-35.19-6.685-41.419-14.029
			c-6.247-7.352-9.809-2.676-12.722,3.343c-2.886,6.01-4,3.124-4,3.124s-3.315-7.8-8.658-3.553c-5.352,4.22-3.37,3.553,0,3.334
			c3.306-0.237,4.43,3.105,4.43,3.105c2.009,6.923,5.8,8.923,10.695,1.123c4.914-7.809,7.59-4.009,10.019,1.123
			c2.457,5.096,14.695,17.581,14.695,17.581c43.209,19.582,53.228-27.18,53.228-27.18c6.685-37.62-29.847-47.858-36.076-59.877
			c-6.22-12.028,0-5.133,0-5.133c5.8,12.238,28.514,21.591,28.514,21.591c16.248,4.457,22.477,27.628,22.477,27.628
			c4.009,25.39,21.162,35.619,21.162,35.619c9.188,5.69,16.138,5.854,21.271,3.717h0.11c2.986-1.178,9.855-4.731,10.284-10.156
			c0.237-3.288,1.26-5.882,2.165-7.59c0.402-1.845,1.982-3.763,8.476-4.886C-173.051,127.733-179.49,126.39-179.49,126.39z
			 M-351.741,38.456c-8.01,7.663-20.358,6.676-24.367-6.366c-4.009-13.033,13.572-22.038,13.572-22.038l0.594-0.247
			c0.1,0.749,0.21,1.498,0.374,2.219c0.073,0.557,0.183,1.123,0.32,1.681c0.1,0.594,0.237,1.178,0.402,1.763
			c0.128,0.621,0.292,1.206,0.448,1.79c0.192,0.703,0.402,1.397,0.621,2.064c1.544,4.859,3.735,9.352,6.411,13.334
			c0.347,0.502,0.694,0.986,1.041,1.47c0.694,0.959,1.416,1.891,2.192,2.777C-350.618,37.388-351.148,37.89-351.741,38.456z"/>
	</g>
</g>
<linearGradient id="SVGID_2_" gradientUnits="userSpaceOnUse" x1="380.737" y1="-171.5325" x2="391.078" y2="-171.5325" gradientTransform="matrix(1 0 0 -1 -234 -29.667)">
	<stop  offset="0.0449" style="stop-color:#077895"/>
	<stop  offset="1" style="stop-color:#0A7997"/>
</linearGradient>
<path fill="url(#SVGID_2_)" d="M156.864,142.053c0.134,0.027,0.214,0.053,0.214,0.053s-7.91-0.347-10.341-0.481
	C147.966,141.679,151.012,141.813,156.864,142.053z"/>
<path fill="#010101" d="M237.192,182.804c0.374,0.909,0.748,1.71,1.176,2.405C237.94,184.407,237.566,183.579,237.192,182.804z"/>
<text transform="matrix(1 0 0 1 -0.1632 287.0989)" fill="#414646" font-family="'UniversLTStd-Light'" font-size="51" letter-spacing="5">DEEP SEA</text>
<text transform="matrix(1 0 0 1 -0.1632 287.0989)" fill="none" stroke="#414646" stroke-miterlimit="10" font-family="'UniversLTStd-Light'" font-size="51" letter-spacing="5">DEEP SEA</text>
</svg>
