<?xml version="1.0" encoding="utf-8"?>
<!-- Generator: Adobe Illustrator 17.0.0, SVG Export Plug-In . SVG Version: 6.00 Build 0)  -->
<!DOCTYPE svg PUBLIC "-//W3C//DTD SVG 1.1//EN" "http://www.w3.org/Graphics/SVG/1.1/DTD/svg11.dtd">
<svg version="1.1" id="Layer_1" xmlns="http://www.w3.org/2000/svg" xmlns:xlink="http://www.w3.org/1999/xlink" x="0px" y="0px"
	 width="213px" height="232px" viewBox="0 0 213 232" enable-background="new 0 0 213 232" xml:space="preserve">
<g>
	<path fill="#E4DECC" d="M7.281,109.398V73.197h11.022c2.984,0,5.162,0.762,6.533,2.284s2.064,3.61,2.08,6.261l0.091,16.908
		c0,3.621-0.708,6.317-2.125,8.09c-1.417,1.772-3.701,2.659-6.852,2.659L7.281,109.398L7.281,109.398z M15.326,79.605v23.18
		c0.045-0.015,0.136-0.022,0.272-0.022c0.091,0,0.262,0.008,0.511,0.022c0.25,0.016,0.451,0.023,0.603,0.023
		c1.53,0,2.295-0.644,2.295-1.932V83.014c0-1.318-0.208-2.223-0.625-2.715s-1.14-0.739-2.17-0.739
		C16.045,79.56,15.75,79.575,15.326,79.605z"/>
	<path fill="#E4DECC" d="M35.115,109.398V73.197h15.999v7.022H43.25v7.067h7.545v6.795H43.25v8.25h8.386v7.067H35.115z"/>
	<path fill="#E4DECC" d="M59.358,109.398V73.197h15.999v7.022h-7.863v7.067h7.545v6.795h-7.545v8.25h8.386v7.067H59.358z"/>
	<path fill="#E4DECC" d="M83.602,109.398V73.197h10.567c1.394,0,2.613,0.182,3.659,0.545c1.045,0.364,1.969,0.955,2.772,1.773
		s1.413,1.951,1.83,3.397c0.417,1.447,0.625,3.201,0.625,5.261c0,1.772-0.125,3.292-0.375,4.556c-0.25,1.266-0.678,2.39-1.284,3.375
		s-1.466,1.724-2.579,2.216c-1.114,0.492-2.481,0.738-4.102,0.738h-3.25v14.34C91.465,109.398,83.602,109.398,83.602,109.398z
		 M91.464,79.787v8.75h0.455c0.424,0,0.746-0.011,0.966-0.034c0.22-0.022,0.478-0.076,0.773-0.159
		c0.295-0.083,0.515-0.219,0.659-0.409s0.292-0.447,0.443-0.773c0.151-0.326,0.253-0.746,0.307-1.261
		c0.053-0.515,0.08-1.136,0.08-1.863c0-1.591-0.208-2.697-0.625-3.318s-1.14-0.932-2.17-0.932h-0.888V79.787z"/>
	<path fill="#E4DECC" d="M110.072,109.398V73.197h10.84c2.834,0,4.932,0.625,6.295,1.875c1.363,1.25,2.045,3.382,2.045,6.397
		c0,0.091,0,0.22,0,0.387c0,0.53,0,0.924,0,1.182c0,0.258-0.025,0.659-0.078,1.205c-0.055,0.545-0.129,0.974-0.229,1.284
		c-0.098,0.311-0.246,0.693-0.443,1.147c-0.197,0.455-0.439,0.826-0.727,1.114c-0.287,0.288-0.652,0.568-1.092,0.841
		c-0.439,0.273-0.945,0.477-1.521,0.614c0.832,0.197,1.545,0.538,2.137,1.022c0.59,0.485,1.037,0.997,1.34,1.534
		s0.541,1.201,0.717,1.988c0.174,0.788,0.275,1.447,0.307,1.977c0.029,0.531,0.045,1.167,0.045,1.909
		c0,1.909-0.133,3.545-0.398,4.909c-0.264,1.363-0.723,2.579-1.375,3.647c-0.65,1.068-1.557,1.864-2.715,2.386
		c-1.158,0.523-2.594,0.784-4.307,0.784L110.072,109.398L110.072,109.398z M117.891,86.832h1.635c0.395,0,0.717-0.083,0.967-0.25
		s0.428-0.405,0.533-0.716c0.105-0.31,0.174-0.591,0.205-0.841c0.029-0.25,0.045-0.549,0.045-0.897v-3.591
		c0-1.151-0.568-1.727-1.703-1.727h-1.682V86.832z M117.891,92.468v10.499c0.363,0.03,0.627,0.045,0.795,0.045
		c2.074,0,3.113-0.894,3.113-2.682v-4.522c0-1.151-0.193-1.996-0.58-2.534c-0.387-0.538-1.004-0.807-1.852-0.807L117.891,92.468
		L117.891,92.468z"/>
	<path fill="#E4DECC" d="M137.18,109.398V73.197h7.999v29.134h8.227v7.067H137.18z"/>
	<path fill="#E4DECC" d="M160.104,99.808V73.197h7.772v25.907c0,0.03,0,0.083,0,0.159c0,0.395,0.003,0.705,0.011,0.932
		s0.046,0.538,0.114,0.932s0.166,0.705,0.295,0.932c0.129,0.228,0.322,0.428,0.58,0.602c0.257,0.175,0.575,0.262,0.954,0.262
		c0.318,0,0.595-0.053,0.829-0.159c0.235-0.106,0.421-0.269,0.558-0.489c0.136-0.219,0.246-0.432,0.329-0.636
		s0.14-0.477,0.171-0.818c0.029-0.341,0.049-0.603,0.057-0.784c0.007-0.182,0.011-0.439,0.011-0.773c0-0.075,0-0.128,0-0.159V73.197
		h7.772v26.611c0,3.272-0.784,5.757-2.353,7.454c-1.567,1.697-4.011,2.538-7.328,2.522c-3.379,0.015-5.853-0.826-7.42-2.522
		C160.889,105.565,160.104,103.081,160.104,99.808z"/>
	<path fill="#E4DECC" d="M188.053,109.398V73.197h15.998v7.022h-7.863v7.067h7.545v6.795h-7.545v8.25h8.386v7.067H188.053z"/>
</g>
<g>
	<path fill="#E4DECC" d="M18.313,117.829h-0.574c-0.126-1.625-0.771-2.073-2.395-2.073c-1.387,0-1.583,0.112-1.583,0.435v7.494
		c0,1.204,0.224,1.667,1.807,1.723v0.532h-5.295v-0.532c1.583-0.056,1.821-0.519,1.821-1.723v-7.494
		c0-0.322-0.182-0.435-1.373-0.435c-1.457,0-2.549,0.084-2.605,2.073H7.597v-2.675h10.576L18.313,117.829z"/>
	<path fill="#E4DECC" d="M31.571,123.712c0,1.429,0.21,1.653,1.527,1.695v0.532H28.56v-0.532c1.316-0.042,1.541-0.28,1.541-1.597
		v-3.04h-5.673v2.941c0,1.429,0.21,1.653,1.527,1.695v0.532h-4.539v-0.532c1.317-0.042,1.541-0.28,1.541-1.597v-6.527
		c0-1.303-0.196-1.541-1.401-1.597v-0.532h4.258v0.532c-1.205,0.042-1.387,0.279-1.387,1.694v2.689H30.1v-2.787
		c0-1.303-0.196-1.541-1.401-1.597v-0.532h4.258v0.532c-1.205,0.042-1.387,0.279-1.387,1.694L31.571,123.712L31.571,123.712z"/>
	<path fill="#E4DECC" d="M39.617,120.015c2.017,0,2.647-0.477,2.647-1.611h0.49v3.824h-0.49c0-1.121-0.546-1.639-2.647-1.653v3.166
		c0,1.219,0.56,1.597,2.325,1.597c1.975,0,2.675-0.504,3.04-2.157h0.532l-0.21,2.76h-8.699v-0.532
		c1.317-0.042,1.541-0.28,1.541-1.597v-6.527c0-1.303-0.196-1.541-1.401-1.597v-0.532h8.096l0.126,2.465h-0.49
		c-0.224-1.484-0.938-1.863-2.843-1.863h-1.779c-0.154,0-0.238,0.099-0.238,0.238C39.617,115.996,39.617,120.015,39.617,120.015z"/>
	<path fill="#E4DECC" d="M67.089,120.631c0,3.039-2.577,5.448-5.827,5.448c-3.25,0-5.827-2.409-5.827-5.448
		c0-3.166,2.549-5.617,5.827-5.617C64.54,115.014,67.089,117.465,67.089,120.631z M65.269,120.673c0-2.998-1.541-4.889-4.006-4.889
		s-4.006,1.891-4.006,4.889c0,2.844,1.541,4.637,4.006,4.637C63.713,125.31,65.269,123.517,65.269,120.673z"/>
	<path fill="#E4DECC" d="M79.772,115.154h0.392l0.126,3.222h-0.518c-0.406-1.625-1.667-2.634-3.32-2.634
		c-2.27,0-3.614,1.849-3.614,4.902c0,2.998,1.303,4.679,3.656,4.679c1.779,0,2.97-0.98,3.474-2.872h0.575v3.488h-0.491l-0.322-1.106
		c-0.995,0.84-2.171,1.246-3.558,1.246c-3.166,0-5.211-2.087-5.211-5.351c0-3.39,2.185-5.715,5.365-5.715
		c1.121,0,2.045,0.294,3.193,1.009L79.772,115.154z"/>
	<path fill="#E4DECC" d="M87.23,120.015c2.017,0,2.647-0.477,2.647-1.611h0.49v3.824h-0.49c0-1.121-0.546-1.639-2.647-1.653v3.166
		c0,1.219,0.56,1.597,2.325,1.597c1.975,0,2.675-0.504,3.04-2.157h0.532l-0.21,2.76h-8.699v-0.532
		c1.317-0.042,1.541-0.28,1.541-1.597v-6.527c0-1.303-0.196-1.541-1.401-1.597v-0.532h8.096l0.126,2.465h-0.49
		c-0.224-1.484-0.938-1.863-2.843-1.863h-1.779c-0.154,0-0.238,0.099-0.238,0.238V120.015z"/>
	<path fill="#E4DECC" d="M102.829,122.031h-3.74c-0.645,1.541-0.868,2.312-0.868,2.689c0,0.519,0.322,0.687,1.092,0.687v0.532H95.91
		v-0.532c0.854-0.098,1.205-0.336,1.526-1.135l3.643-9.118h0.603l3.18,7.899c0.854,2.102,1.162,2.34,2.129,2.34v0.546h-4.566v-0.546
		c0.994,0,1.303-0.169,1.303-0.603c0-0.364-0.07-0.603-0.322-1.247L102.829,122.031z M99.369,121.331h3.193l-1.555-4.132
		L99.369,121.331z"/>
	<path fill="#E4DECC" d="M118.763,126.079l-6.655-8.769h-0.056v5.981c0,1.849,0.196,2.073,1.387,2.115v0.532h-3.769v-0.532
		c1.317-0.042,1.541-0.28,1.541-2.018v-5.687c0-1.583-0.196-1.961-1.4-2.017v-0.532h2.773l6.122,8.166h0.057v-5.519
		c0-1.85-0.196-2.073-1.387-2.115v-0.532h3.768v0.532c-1.316,0.042-1.541,0.279-1.541,2.017v8.376h-0.84V126.079z"/>
	<path fill="#E4DECC" d="M130.699,125.939v-0.532c1.429-0.042,1.681-0.267,1.681-1.597v-6.527c0-1.303-0.195-1.541-1.4-1.597v-0.532
		h4.917c3.375,0,5.827,2.353,5.827,5.574c0,3.067-2.283,5.211-5.548,5.211H130.699z M134.089,115.84
		c-0.154,0-0.238,0.099-0.238,0.238v7.578c0,1.078,0.673,1.597,2.088,1.597c2.535,0,3.964-1.555,3.964-4.496
		c0-3.096-1.541-4.917-4.034-4.917H134.089z"/>
	<path fill="#E4DECC" d="M148.242,120.015c2.018,0,2.647-0.477,2.647-1.611h0.49v3.824h-0.49c0-1.121-0.546-1.639-2.647-1.653v3.166
		c0,1.219,0.561,1.597,2.325,1.597c1.976,0,2.676-0.504,3.04-2.157h0.532l-0.21,2.76h-8.699v-0.532
		c1.317-0.042,1.541-0.28,1.541-1.597v-6.527c0-1.303-0.196-1.541-1.4-1.597v-0.532h8.097l0.126,2.465h-0.49
		c-0.225-1.484-0.938-1.863-2.844-1.863h-1.779c-0.154,0-0.238,0.099-0.238,0.238L148.242,120.015L148.242,120.015z"/>
	<path fill="#E4DECC" d="M161.907,121.037h-1.261v2.703c0,1.387,0.238,1.667,1.934,1.667v0.532h-4.945v-0.532
		c1.317-0.042,1.541-0.28,1.541-1.597v-6.527c0-1.303-0.196-1.541-1.4-1.597v-0.532h4.398c2.563,0,4.048,1.008,4.048,2.703
		C166.222,119.818,165.031,121.037,161.907,121.037z M160.646,120.336h0.995c1.849,0,2.76-0.672,2.76-2.311
		c0-1.568-0.701-2.213-2.228-2.213h-1.289c-0.154,0-0.238,0.098-0.238,0.238L160.646,120.336L160.646,120.336z"/>
	<path fill="#E4DECC" d="M179.872,117.829h-0.574c-0.126-1.625-0.771-2.073-2.396-2.073c-1.387,0-1.583,0.112-1.583,0.435v7.494
		c0,1.204,0.225,1.667,1.808,1.723v0.532h-5.295v-0.532c1.583-0.056,1.821-0.519,1.821-1.723v-7.494
		c0-0.322-0.183-0.435-1.373-0.435c-1.457,0-2.55,0.084-2.605,2.073h-0.519v-2.675h10.576L179.872,117.829z"/>
	<path fill="#E4DECC" d="M193.131,123.712c0,1.429,0.21,1.653,1.526,1.695v0.532h-4.538v-0.532c1.316-0.042,1.541-0.28,1.541-1.597
		v-3.04h-5.674v2.941c0,1.429,0.211,1.653,1.527,1.695v0.532h-4.539v-0.532c1.317-0.042,1.541-0.28,1.541-1.597v-6.527
		c0-1.303-0.196-1.541-1.4-1.597v-0.532h4.258v0.532c-1.204,0.042-1.387,0.279-1.387,1.694v2.689h5.674v-2.787
		c0-1.303-0.196-1.541-1.401-1.597v-0.532h4.259v0.532c-1.205,0.042-1.387,0.279-1.387,1.694L193.131,123.712L193.131,123.712z"/>
	<path fill="#E4DECC" d="M198.347,122.647h0.519c0.266,1.695,1.498,2.718,3.18,2.718c1.372,0,2.241-0.715,2.241-1.821
		c0-0.952-0.561-1.499-2.451-2.325c-2.326-1.022-3.04-1.793-3.04-3.235c0-1.737,1.303-2.97,3.138-2.97
		c0.812,0,1.499,0.252,2.228,0.826l0.364-0.63h0.321l0.154,2.787h-0.519c-0.447-1.526-1.316-2.269-2.507-2.269
		c-1.135,0-1.863,0.616-1.863,1.555c0,0.882,0.547,1.415,2.144,2.129c2.773,1.246,3.558,2.017,3.558,3.487
		c0,1.877-1.555,3.18-3.81,3.18c-1.064,0-1.863-0.279-2.731-0.98l-0.393,0.687h-0.322L198.347,122.647z"/>
</g>
<path fill="#E4DECC" d="M157,45.51c-1.22,0-2.28,0.64-2.85,1.62l-0.76-0.47c-12.98-1.68-27.89-2.23-41.98-2.22V31.48
	c0,0,0.42-0.85,1.1-1.92v-0.01c1.3-0.91,2.38-2.14,3.12-3.54h0.01c0.03-0.05,0.06-0.1,0.08-0.15c0.69-1.32,1.09-2.8,1.15-4.38
	c0.08-0.53,0.12-1.08,0.12-1.63c0-6.11-4.96-11.07-11.07-11.07c-6.12,0-11.08,4.96-11.08,11.07c0,0.48,0.03,0.95,0.09,1.42
	c0.12,0.92,0.35,1.8,0.67,2.63c0.18,0.44,0.37,0.84,0.57,1.21c0.06,0.11,0.12,0.22,0.19,0.32c0.18,0.31,0.37,0.58,0.55,0.83
	s0.36,0.47,0.53,0.66c0.08,0.1,0.16,0.19,0.23,0.27c0.46,0.55,0.97,1.05,1.55,1.49c0.41,0.49,0.67,0.96,0.84,1.36
	c0,0.02,0.01,0.04,0.02,0.06c0.17,0.56,0.27,1.11,0.26,1.61c-0.02,1.21-0.04,6.72-0.04,12.85c-23.01,0.46-41.44,2.1-41.44,2.1
	l-0.59,0.29c-0.6-0.88-1.6-1.44-2.75-1.44c-1.84,0-3.33,1.49-3.33,3.33s1.49,3.34,3.33,3.34c1.29,0,2.41-0.74,2.96-1.79l0.38,0.14
	c14.61,1.78,28.74,2.53,41.44,2.68c-0.01,5.93-0.01,10.76-0.01,10.76h11.12V53.2c24.9-0.32,41.98-2.67,41.98-2.67l0.6-0.27
	c0.52,1.13,1.68,1.92,3.01,1.92c1.85,0,3.34-1.5,3.34-3.34C160.34,47,158.85,45.51,157,45.51z M106.26,25.67
	c-2.98,0-5.4-2.42-5.4-5.4c0-2.99,2.42-5.41,5.4-5.41c2.99,0,5.41,2.42,5.41,5.41C111.67,23.25,109.25,25.67,106.26,25.67z"/>
<path fill="#E4DECC" d="M95.6,23.9c-0.32-0.78-0.57-1.66-0.67-2.63C95.05,22.19,95.28,23.07,95.6,23.9z"/>
<polygon fill="#E4DECC" points="99.05,127.071 99.172,127.071 99.172,129.195 "/>
<path fill="#E4DECC" d="M105.233,221.021c-0.056,0.122-0.1,0.222-0.156,0.3c0,0-0.111-0.712-0.256-1.724
	C104.966,220.198,105.089,220.676,105.233,221.021z"/>
<path fill="#E4DECC" d="M177.844,179.478c0,0-1.49-4.815-5.383-7.04c0,0-0.734-0.556-1.668,0.745c0,0-17.049,29.471-40.403,32.429
	c-20.262,2.58-22.531,16.037-23.732,21.063c-0.133,0.567-0.256,1.023-0.389,1.346c-0.145-0.345-0.267-0.823-0.411-1.423
	c-1.223-5.093-3.559-18.428-23.721-20.985c-23.354-2.958-40.403-32.429-40.403-32.429c-0.934-1.301-1.668-0.745-1.668-0.745
	c-3.892,2.224-5.383,7.04-5.383,7.04c-13.712-16.682-3.514-39.658-3.514-39.658c18.072,6.851,27.525,24.277,27.525,24.277
	c-6.584-0.556-7.785,2.135-8.808,2.502s0,1.668,0,1.668c13.901,18.628,29.471,23.076,39.48,25.856s10.843-2.502,10.843-2.502
	v-57.551h12.111v57.551c0,0,0.834,5.282,10.843,2.502s25.578-7.229,39.48-25.856c0,0,1.023-1.301,0-1.668s-2.224-3.058-8.808-2.502
	c0,0,9.453-17.427,27.525-24.277C181.359,139.82,191.557,162.796,177.844,179.478z"/>
<path fill="#E4DECC" d="M105.233,221.021c0.133-0.322,0.256-0.778,0.389-1.346c-0.156,0.968-0.245,1.646-0.245,1.646
	C105.322,221.243,105.278,221.143,105.233,221.021z"/>
<polygon fill="#E4DECC" points="111.405,127.071 111.283,129.195 111.283,127.071 "/>
</svg>
