<?xml version="1.0" encoding="utf-8"?>
<!-- Generator: Adobe Illustrator 17.0.0, SVG Export Plug-In . SVG Version: 6.00 Build 0)  -->
<!DOCTYPE svg PUBLIC "-//W3C//DTD SVG 1.1//EN" "http://www.w3.org/Graphics/SVG/1.1/DTD/svg11.dtd">
<svg version="1.1" id="Layer_1" xmlns="http://www.w3.org/2000/svg" xmlns:xlink="http://www.w3.org/1999/xlink" x="0px" y="0px"
	 width="177.526px" height="176px" viewBox="0 0 177.526 176" enable-background="new 0 0 177.526 176" xml:space="preserve">
<rect x="1.526" y="0" width="176" height="176"/>
<text transform="matrix(1 0 0 1 35.1518 65.3456)" fill="#FFFFFF" font-family="'Langdon'" font-size="61">DEEP</text>
<text transform="matrix(1 0 0 1 35.1518 113.5195)" fill="#FFFFFF" font-family="'Langdon'" font-size="61">BLUE</text>
<g>
	<g>
		<g>
			<path fill="#FFFFFF" d="M58.207,125.257c-0.52-0.51-1.12-0.92-1.8-1.23c-0.69-0.31-1.45-0.47-2.29-0.47
				c-0.92,0-1.75,0.16-2.48,0.47c-0.72,0.32-1.34,0.75-1.86,1.3c-0.17,0.18-0.33,0.37-0.48,0.57c0.04,0,0.09,0.01,0.13,0.01
				l1.89,0.15c0.13-0.11,0.27-0.2,0.42-0.28c0.7-0.39,1.49-0.59,2.35-0.59c0.84,0,1.61,0.22,2.34,0.66
				c0.18,0.11,0.35,0.22,0.51,0.35l1.96-0.11C58.687,125.777,58.457,125.507,58.207,125.257z"/>
			<path fill="#FFFFFF" d="M58.897,126.087l-1.96,0.11c-0.16-0.13-0.33-0.24-0.51-0.35c-0.73-0.44-1.5-0.66-2.34-0.66
				c-0.86,0-1.65,0.2-2.35,0.59c-0.15,0.08-0.29,0.17-0.42,0.28l-1.89-0.15c-0.04,0-0.09-0.01-0.13-0.01
				c0.15-0.2,0.31-0.39,0.48-0.57c0.52-0.55,1.14-0.98,1.86-1.3c0.73-0.31,1.56-0.47,2.48-0.47c0.84,0,1.6,0.16,2.29,0.47
				c0.68,0.31,1.28,0.72,1.8,1.23C58.457,125.507,58.687,125.777,58.897,126.087z"/>
		</g>
	</g>
	<g>
		<g>
			<path fill="#FFFFFF" d="M131.867,127.397c-0.56-1.59-1.36-2.91-2.38-3.92c-0.72-0.71-1.56-1.29-2.52-1.73
				c-1.01-0.46-2.13-0.69-3.31-0.69c-1.28,0-2.45,0.23-3.49,0.69c-1.02,0.44-1.92,1.07-2.66,1.85c-0.58,0.6-1.08,1.29-1.49,2.07
				l-1.62-0.15l0.22,3.01v0.18c0,0.67-0.07,1.36-0.22,2.05c-0.12,0.59-0.32,1.13-0.59,1.6c-0.25,0.43-0.52,0.74-0.82,0.9
				c-0.62,0.35-1.47,0.42-2.18-0.02c-0.36-0.21-0.65-0.53-0.89-0.95c-0.23-0.4-0.4-0.9-0.52-1.5c-0.15-0.69-0.22-1.36-0.22-1.99
				v-3.05l-1.35,0.11c-0.48-0.92-1.05-1.72-1.72-2.38c-0.72-0.71-1.57-1.29-2.52-1.73c-1.01-0.46-2.13-0.69-3.32-0.69
				c-1.27,0-2.44,0.23-3.48,0.69c-1.02,0.44-1.92,1.07-2.66,1.85c-0.56,0.58-1.04,1.24-1.44,1.99l-1.34-0.16l0.18,2.98l0.01,0.21
				c-0.2,0.86-0.33,1.79-0.39,2.76c-0.11,0.35-0.25,0.68-0.42,0.98c-0.25,0.43-0.52,0.74-0.82,0.9c-0.62,0.34-1.47,0.42-2.19-0.02
				c-0.35-0.21-0.64-0.53-0.89-0.96c-0.13-0.24-0.25-0.51-0.34-0.83c-0.05-0.94-0.18-1.85-0.39-2.73v-2.97l-1.05,0.09
				c-0.47-0.91-1.04-1.7-1.7-2.36c-0.73-0.71-1.57-1.29-2.53-1.73c-1.01-0.46-2.13-0.69-3.31-0.69c-1.28,0-2.45,0.23-3.49,0.69
				c-1.02,0.45-1.92,1.07-2.66,1.85c-0.56,0.59-1.05,1.26-1.46,2.02l-1.62-0.19l0.18,2.98l0.01,0.3c0,0.67-0.08,1.36-0.22,2.05
				c-0.12,0.59-0.32,1.13-0.59,1.6c-0.25,0.43-0.52,0.74-0.82,0.9c-0.62,0.34-1.46,0.42-2.18-0.02c-0.36-0.21-0.65-0.53-0.89-0.95
				c-0.23-0.4-0.4-0.9-0.52-1.5c-0.15-0.69-0.22-1.36-0.22-1.99v-3.05l-1.36,0.12c-0.47-0.93-1.04-1.73-1.71-2.39
				c-0.72-0.71-1.57-1.29-2.52-1.73c-1.01-0.46-2.13-0.69-3.32-0.69c-1.27,0-2.44,0.23-3.48,0.69c-1.02,0.44-1.92,1.07-2.66,1.85
				c-0.56,0.58-1.04,1.24-1.44,1.99l-1.34-0.16l0.18,2.98l0.01,0.24c-0.2,0.85-0.32,1.75-0.38,2.7c-0.11,0.36-0.25,0.7-0.43,1.01
				c-0.25,0.43-0.53,0.74-0.82,0.9c-0.62,0.35-1.47,0.42-2.19-0.02c-0.35-0.21-0.64-0.53-0.89-0.96c-0.22-0.39-0.39-0.89-0.52-1.49
				c-0.14-0.69-0.21-1.36-0.21-1.99v-3.05l-2.72,0.23c-0.28,0.03-0.54,0.05-0.79,0.07l-2.86,0.17v2.79c0,1.69,0.26,3.32,0.79,4.82
				c0.56,1.59,1.36,2.91,2.37,3.92c0.72,0.71,1.57,1.29,2.52,1.72c1.02,0.47,2.13,0.7,3.32,0.7c1.27,0,2.44-0.23,3.48-0.69
				c1.03-0.45,1.93-1.07,2.67-1.85c0.56-0.58,1.05-1.26,1.46-2.01l1.31,0.13l-0.18-2.94v-0.23c0.2-0.85,0.32-1.75,0.38-2.71
				c0.11-0.36,0.25-0.69,0.43-1c0.25-0.44,0.52-0.74,0.82-0.9c0.62-0.35,1.46-0.42,2.18,0.02c0.35,0.21,0.65,0.53,0.89,0.96
				c0.22,0.39,0.4,0.89,0.52,1.49c0.14,0.69,0.21,1.36,0.21,1.99v3.05l1.36-0.12c0.47,0.93,1.04,1.72,1.71,2.39
				c0.72,0.71,1.57,1.29,2.53,1.72c1.01,0.47,2.13,0.7,3.31,0.7c1.27,0,2.44-0.23,3.49-0.69c1.02-0.45,1.92-1.07,2.66-1.85
				c0.58-0.6,1.08-1.3,1.5-2.09l1.6,0.12l-0.21-2.96v-0.19c0-0.67,0.07-1.35,0.22-2.04c0.12-0.59,0.32-1.13,0.59-1.6
				c0.25-0.44,0.52-0.74,0.82-0.9c0.62-0.35,1.46-0.42,2.18,0.02c0.36,0.21,0.65,0.53,0.89,0.95c0.14,0.24,0.25,0.52,0.35,0.83
				c0.04,0.95,0.17,1.88,0.39,2.77v2.94l1.05-0.09c0.47,0.91,1.04,1.7,1.7,2.36c0.72,0.71,1.57,1.29,2.52,1.72
				c1.02,0.47,2.13,0.7,3.32,0.7c1.27,0,2.44-0.23,3.48-0.69c1.03-0.45,1.93-1.07,2.67-1.85c0.58-0.6,1.08-1.29,1.49-2.07l1.31,0.1
				l-0.21-2.96v-0.12c0.2-0.85,0.32-1.75,0.38-2.71c0.11-0.36,0.25-0.69,0.43-1c0.25-0.44,0.52-0.74,0.82-0.9
				c0.62-0.35,1.46-0.42,2.18,0.02c0.36,0.21,0.65,0.53,0.89,0.95c0.22,0.4,0.4,0.9,0.52,1.5c0.14,0.69,0.21,1.36,0.21,1.99v3.05
				l1.36-0.12c0.47,0.93,1.05,1.73,1.71,2.39c0.72,0.71,1.57,1.29,2.53,1.72c1.01,0.47,2.13,0.7,3.31,0.7
				c1.27,0,2.44-0.23,3.49-0.69c1.02-0.45,1.92-1.07,2.66-1.85c0.57-0.59,1.06-1.27,1.47-2.04l1.61,0.16l-0.18-2.94l-0.01-0.3
				c0-0.67,0.07-1.35,0.22-2.04c0.12-0.59,0.32-1.13,0.59-1.6c0.25-0.43,0.52-0.74,0.82-0.9c0.62-0.35,1.46-0.42,2.18,0.02
				c0.36,0.21,0.65,0.53,0.89,0.95c0.23,0.4,0.4,0.9,0.52,1.5c0.14,0.69,0.22,1.36,0.22,1.99v3.05l3.51-0.3
				c0.22-0.02,0.39-0.03,0.49-0.03l2.37-0.12v-2.81C132.657,130.527,132.387,128.907,131.867,127.397z M56.937,126.197
				c-0.16-0.13-0.33-0.24-0.51-0.35c-0.73-0.44-1.5-0.66-2.34-0.66c-0.86,0-1.65,0.2-2.35,0.59c-0.15,0.08-0.29,0.17-0.42,0.28
				l-1.89-0.15c-0.04,0-0.09-0.01-0.13-0.01c0.15-0.2,0.31-0.39,0.48-0.57c0.52-0.55,1.14-0.98,1.86-1.3
				c0.73-0.31,1.56-0.47,2.48-0.47c0.84,0,1.6,0.16,2.29,0.47c0.68,0.31,1.28,0.72,1.8,1.23c0.25,0.25,0.48,0.52,0.69,0.83
				L56.937,126.197z"/>
		</g>
	</g>
</g>
<g>
	<g>
		<g>
			<path fill="#FFFFFF" d="M47.877,149.427c0,0.09,0.01,0.18,0.01,0.27v0.18c0,0.1,0,0.2-0.01,0.3c0.05-0.24,0.12-0.47,0.19-0.69
				c0-0.01,0.01-0.03,0.01-0.04C47.977,149.437,47.907,149.427,47.877,149.427z"/>
			<path fill="#FFFFFF" d="M48.077,149.447c0,0.01-0.01,0.03-0.01,0.04c-0.07,0.22-0.14,0.45-0.19,0.69c0.01-0.1,0.01-0.2,0.01-0.3
				v-0.18c0-0.09-0.01-0.18-0.01-0.27C47.907,149.427,47.977,149.437,48.077,149.447z"/>
			<path fill="#FFFFFF" d="M48.817,153.857c0,0.09,0,0.18,0.01,0.27c-0.04,0-0.1-0.01-0.21-0.02c0.01-0.01,0.02-0.03,0.02-0.04
				c0.07-0.22,0.14-0.45,0.19-0.69c-0.01,0.1-0.01,0.2-0.01,0.3V153.857z"/>
		</g>
	</g>
	<g>
		<g>
			<path fill="#FFFFFF" d="M48.817,153.677c0-0.1,0-0.2,0.01-0.3c-0.05,0.24-0.12,0.47-0.19,0.69c0,0.01-0.01,0.03-0.02,0.04
				c0.11,0.01,0.17,0.02,0.21,0.02c-0.01-0.09-0.01-0.18-0.01-0.27V153.677z"/>
			<path fill="#FFFFFF" d="M48.077,149.447c0,0.01-0.01,0.03-0.01,0.04c-0.07,0.22-0.14,0.45-0.19,0.69c0.01-0.1,0.01-0.2,0.01-0.3
				v-0.18c0-0.09-0.01-0.18-0.01-0.27C47.907,149.427,47.977,149.437,48.077,149.447z"/>
			<path fill="#FFFFFF" d="M48.817,153.857c0,0.09,0,0.18,0.01,0.27c-0.04,0-0.1-0.01-0.21-0.02c0.01-0.01,0.02-0.03,0.02-0.04
				c0.07-0.22,0.14-0.45,0.19-0.69c-0.01,0.1-0.01,0.2-0.01,0.3V153.857z"/>
		</g>
	</g>
	<g>
		<g>
			<path fill="#FFFFFF" d="M82.797,153.907c-0.07-0.18-0.12-0.36-0.17-0.54c0.01,0.08,0.01,0.15,0.01,0.22v0.33
				C82.697,153.907,82.747,153.907,82.797,153.907z"/>
			<path fill="#FFFFFF" d="M82.637,153.917v-0.33c0-0.07,0-0.14-0.01-0.22c0.05,0.18,0.1,0.36,0.17,0.54
				C82.747,153.907,82.697,153.907,82.637,153.917z"/>
			<path fill="#FFFFFF" d="M83.607,150.217c-0.05-0.19-0.1-0.38-0.17-0.57c0.05,0,0.1-0.01,0.16-0.01v0.33
				C83.597,150.047,83.597,150.127,83.607,150.217z"/>
		</g>
	</g>
	<g>
		<g>
			<path fill="#FFFFFF" d="M83.597,149.967v-0.33c-0.06,0-0.11,0.01-0.16,0.01c0.07,0.19,0.12,0.38,0.17,0.57
				C83.597,150.127,83.597,150.047,83.597,149.967z"/>
			<path fill="#FFFFFF" d="M82.637,153.917v-0.33c0-0.07,0-0.14-0.01-0.22c0.05,0.18,0.1,0.36,0.17,0.54
				C82.747,153.907,82.697,153.907,82.637,153.917z"/>
			<path fill="#FFFFFF" d="M83.607,150.217c-0.05-0.19-0.1-0.38-0.17-0.57c0.05,0,0.1-0.01,0.16-0.01v0.33
				C83.597,150.047,83.597,150.127,83.607,150.217z"/>
		</g>
	</g>
	<g>
		<g>
			<path fill="#FFFFFF" d="M131.867,148.567c-0.56-1.6-1.36-2.92-2.38-3.92c-0.72-0.72-1.56-1.3-2.52-1.73
				c-1.01-0.46-2.13-0.7-3.31-0.7c-1.28,0-2.45,0.23-3.49,0.69c-1.02,0.45-1.92,1.08-2.66,1.85c-0.58,0.6-1.07,1.3-1.48,2.07
				l-1.63-0.15l0.22,3.02v0.18c0,0.67-0.07,1.36-0.22,2.04c-0.12,0.6-0.32,1.13-0.59,1.6c-0.25,0.44-0.52,0.74-0.82,0.91
				c-0.62,0.34-1.47,0.41-2.18-0.02c-0.36-0.22-0.65-0.53-0.89-0.96c-0.23-0.39-0.4-0.9-0.52-1.49c-0.15-0.69-0.22-1.36-0.22-1.99
				v-3.06l-1.35,0.12c-0.47-0.93-1.05-1.72-1.72-2.38c-0.72-0.72-1.57-1.3-2.52-1.73c-1.01-0.46-2.13-0.7-3.32-0.7
				c-1.27,0-2.44,0.23-3.48,0.69c-1.02,0.45-1.92,1.08-2.66,1.85c-0.56,0.58-1.04,1.24-1.44,1.99l-1.34-0.16l0.18,2.99l0.01,0.21
				c-0.2,0.86-0.33,1.79-0.39,2.76c-0.11,0.35-0.25,0.67-0.42,0.97c-0.25,0.44-0.52,0.74-0.82,0.91c-0.62,0.34-1.47,0.41-2.19-0.02
				c-0.35-0.22-0.64-0.53-0.89-0.96c-0.13-0.23-0.25-0.51-0.34-0.83c-0.04-0.94-0.17-1.85-0.39-2.73v-2.98l-1.05,0.09
				c-0.47-0.91-1.04-1.7-1.7-2.35c-0.73-0.72-1.58-1.3-2.53-1.73c-1.01-0.46-2.13-0.7-3.31-0.7c-1.28,0-2.45,0.23-3.49,0.69
				c-1.02,0.45-1.92,1.08-2.66,1.85c-0.56,0.59-1.05,1.26-1.46,2.02l-1.62-0.19l0.18,2.99l0.01,0.3c0,0.67-0.08,1.36-0.22,2.04
				c-0.12,0.6-0.32,1.13-0.59,1.6c-0.25,0.44-0.52,0.74-0.82,0.91c-0.62,0.34-1.46,0.41-2.18-0.02c-0.36-0.22-0.65-0.53-0.89-0.96
				c-0.23-0.39-0.4-0.9-0.52-1.5c-0.15-0.68-0.22-1.35-0.22-1.98v-3.06l-1.36,0.12c-0.47-0.93-1.04-1.72-1.71-2.38
				c-0.72-0.72-1.57-1.3-2.52-1.73c-1.01-0.46-2.13-0.7-3.32-0.7c-1.27,0-2.44,0.23-3.48,0.69c-1.03,0.45-1.92,1.08-2.66,1.85
				c-0.55,0.58-1.04,1.25-1.44,1.99l-1.34-0.16l0.18,2.99l0.01,0.24c-0.2,0.84-0.32,1.74-0.38,2.69c-0.11,0.36-0.25,0.7-0.43,1.01
				c-0.25,0.44-0.52,0.74-0.82,0.91c-0.62,0.34-1.47,0.41-2.19-0.02c-0.35-0.22-0.64-0.53-0.89-0.96c-0.22-0.39-0.39-0.89-0.52-1.5
				c-0.14-0.68-0.21-1.35-0.21-1.98v-3.06l-3.56,0.31c-0.2,0.01-0.34,0.02-0.44,0.03l-2.37,0.12v2.81c0,1.69,0.26,3.31,0.79,4.81
				c0.56,1.6,1.36,2.92,2.37,3.92c0.72,0.72,1.57,1.3,2.52,1.73c1.02,0.46,2.13,0.69,3.32,0.69c1.27,0,2.45-0.23,3.48-0.68
				s1.93-1.07,2.67-1.85c0.55-0.58,1.04-1.25,1.44-1.99l1.34,0.16l-0.19-2.99v-0.23c0.2-0.85,0.32-1.76,0.38-2.72
				c0.11-0.36,0.26-0.69,0.43-0.99c0.25-0.44,0.52-0.74,0.82-0.91c0.62-0.34,1.46-0.41,2.18,0.02c0.35,0.22,0.65,0.53,0.89,0.96
				c0.22,0.39,0.4,0.89,0.52,1.49c0.14,0.69,0.21,1.36,0.21,1.99v3.05l1.36-0.11c0.47,0.93,1.05,1.72,1.71,2.38
				c0.72,0.71,1.57,1.3,2.53,1.73c1.01,0.46,2.13,0.69,3.31,0.69c1.28,0,2.45-0.23,3.49-0.68c1.02-0.45,1.92-1.07,2.66-1.85
				c0.58-0.6,1.07-1.3,1.48-2.07l1.62,0.15l-0.21-3.02v-0.18c0-0.67,0.07-1.36,0.22-2.04c0.12-0.6,0.32-1.13,0.59-1.6
				c0.25-0.44,0.52-0.74,0.82-0.91c0.62-0.34,1.46-0.41,2.18,0.02c0.36,0.22,0.65,0.53,0.89,0.96c0.14,0.24,0.26,0.51,0.35,0.83
				c0.04,0.95,0.17,1.87,0.39,2.76v2.94l1.05-0.09c0.47,0.92,1.04,1.71,1.7,2.36c0.72,0.72,1.57,1.3,2.52,1.73
				c1.02,0.46,2.13,0.69,3.32,0.69c1.27,0,2.44-0.23,3.48-0.68c1.03-0.45,1.93-1.07,2.67-1.85c0.57-0.6,1.06-1.28,1.47-2.04
				l1.33,0.12l-0.21-3.02v-0.11c0.2-0.85,0.32-1.76,0.38-2.72c0.11-0.36,0.26-0.69,0.43-0.99c0.25-0.44,0.52-0.74,0.82-0.91
				c0.62-0.34,1.46-0.41,2.18,0.02c0.36,0.22,0.65,0.53,0.89,0.96c0.22,0.39,0.4,0.9,0.52,1.49c0.14,0.69,0.21,1.36,0.21,1.99v3.05
				l1.36-0.11c0.47,0.93,1.05,1.72,1.71,2.38c0.73,0.72,1.57,1.3,2.53,1.73c1.01,0.46,2.13,0.69,3.31,0.69
				c1.28,0,2.45-0.23,3.49-0.68c1.02-0.45,1.92-1.07,2.66-1.85c0.56-0.59,1.05-1.26,1.46-2.02l1.62,0.19l-0.18-2.99l-0.01-0.3
				c0-0.67,0.07-1.36,0.22-2.04c0.12-0.6,0.32-1.13,0.59-1.6c0.25-0.44,0.52-0.74,0.82-0.91c0.62-0.34,1.46-0.41,2.18,0.02
				c0.36,0.22,0.65,0.53,0.89,0.96c0.23,0.39,0.4,0.89,0.52,1.49c0.14,0.69,0.22,1.36,0.22,1.99v3.06l3.53-0.31
				c0.21-0.01,0.37-0.02,0.47-0.03l2.37-0.12v-2.81C132.657,151.687,132.387,150.067,131.867,148.567z M48.067,149.487
				c-0.07,0.22-0.14,0.45-0.19,0.69c0.01-0.1,0.01-0.2,0.01-0.3v-0.18c0-0.09-0.01-0.18-0.01-0.27c0.03,0,0.1,0.01,0.2,0.02
				C48.077,149.457,48.067,149.477,48.067,149.487z M48.827,154.127c-0.04,0-0.1-0.01-0.21-0.02c0.01-0.01,0.02-0.03,0.02-0.04
				c0.07-0.22,0.14-0.45,0.19-0.69c-0.01,0.1-0.01,0.2-0.01,0.3v0.18C48.817,153.947,48.817,154.037,48.827,154.127z
				 M82.637,153.917v-0.33c0-0.07,0-0.14-0.01-0.22c0.05,0.18,0.1,0.36,0.17,0.54C82.747,153.907,82.697,153.907,82.637,153.917z
				 M83.437,149.647c0.05,0,0.1-0.01,0.16-0.01v0.33c0,0.08,0,0.16,0.01,0.25C83.557,150.027,83.507,149.837,83.437,149.647z"/>
		</g>
	</g>
</g>
</svg>
